<svg xmlns="http://www.w3.org/2000/svg" width="120.723" height="48.03"><defs><clipPath id="a"><path d="M0 0h120.723v-48.03H0z" fill="none"/></clipPath></defs><path d="M107.44 47.13h13.283V29.67H107.44z" fill="#b4723d"/><g clip-path="url(#a)" transform="translate(0 48.03)"><path d="M100.142-.956h1.494v-17.359h-1.461q-1.533 9.316-6.233 12.949a16.929 16.929 0 0 1-10.62 3.633 13.485 13.485 0 0 1-11.5-5.879q-4.181-5.761-4.255-16.4.083-10.63 4.255-16.4a13.488 13.488 0 0 1 11.5-5.879 16.929 16.929 0 0 1 10.62 3.627q4.705 3.635 6.233 12.949h1.461v-17.358h-1.494c-.552 2.948-5.1 2.544-8.43 1.167a24.063 24.063 0 0 0-9.37-2.124 23.187 23.187 0 0 0-11.49 2.922 19.752 19.752 0 0 0-8.154 8.952 29.007 29.007 0 0 0-2.9 11.678v.923a29 29 0 0 0 2.9 11.677 19.752 19.752 0 0 0 8.159 8.954A23.176 23.176 0 0 0 82.342 0a24.045 24.045 0 0 0 9.37-2.124c3.33-1.377 7.878-1.78 8.43 1.168M60.21-45.416h1.7v-1.563H47.755L30.942-8.856 14.063-46.979H0v1.563h1.257q3.5 0 4.537.611a3.106 3.106 0 0 1 1.358 2.21 46.674 46.674 0 0 1 .324 7.1v20.052a48.858 48.858 0 0 1-.408 7.816 5.807 5.807 0 0 1-2.26 3.548A8.417 8.417 0 0 1 0-2.47v1.566h16.48v-1.564a8.245 8.245 0 0 1-4.961-1.711 5.849 5.849 0 0 1-2.106-3.514 54.1 54.1 0 0 1-.34-7.544v-26.985L27.442-.904h1.623l18.267-41.318v29.324a49.35 49.35 0 0 1-.322 7.355 3.468 3.468 0 0 1-1.462 2.328 7.878 7.878 0 0 1-4.06.747h-1.631v1.564h22.052v-1.564H59.87q-3.125 0-4.23-.815a3.678 3.678 0 0 1-1.376-2.5 56.827 56.827 0 0 1-.272-7.118v-22.6a43.209 43.209 0 0 1 .357-7.27 2.961 2.961 0 0 1 1.41-2.09 11.214 11.214 0 0 1 4.451-.561" fill="#16161a"/></g></svg>


